<svg xmlns="http://www.w3.org/2000/svg" viewBox="0 0 960 320" fill="none">
  <defs>
    <linearGradient id="bg" x1="0" y1="0" x2="960" y2="320" gradientUnits="userSpaceOnUse">
      <stop offset="0%" stop-color="#0f172a"/>
      <stop offset="100%" stop-color="#1e3a5f"/>
    </linearGradient>
    <linearGradient id="accent" x1="0" y1="0" x2="200" y2="0" gradientUnits="userSpaceOnUse">
      <stop offset="0%" stop-color="#f97316"/>
      <stop offset="100%" stop-color="#ef4444"/>
    </linearGradient>
    <linearGradient id="glow" x1="480" y1="0" x2="480" y2="320" gradientUnits="userSpaceOnUse">
      <stop offset="0%" stop-color="#f97316" stop-opacity="0.06"/>
      <stop offset="100%" stop-color="#ef4444" stop-opacity="0"/>
    </linearGradient>
    <filter id="shadow" x="-10%" y="-10%" width="120%" height="120%">
      <feDropShadow dx="0" dy="2" stdDeviation="6" flood-color="#f97316" flood-opacity="0.35"/>
    </filter>
    <filter id="softshadow" x="-10%" y="-10%" width="120%" height="120%">
      <feDropShadow dx="0" dy="1" stdDeviation="2" flood-color="#000" flood-opacity="0.4"/>
    </filter>
  </defs>

  <!-- Background -->
  <rect width="960" height="320" rx="12" fill="url(#bg)"/>
  <rect width="960" height="320" rx="12" fill="url(#glow)"/>

  <!-- Decorative grid dots -->
  <g opacity="0.06" fill="#94a3b8">
    <circle cx="40" cy="40" r="1.5"/><circle cx="80" cy="40" r="1.5"/><circle cx="120" cy="40" r="1.5"/><circle cx="160" cy="40" r="1.5"/><circle cx="200" cy="40" r="1.5"/><circle cx="240" cy="40" r="1.5"/><circle cx="280" cy="40" r="1.5"/><circle cx="320" cy="40" r="1.5"/><circle cx="360" cy="40" r="1.5"/><circle cx="400" cy="40" r="1.5"/><circle cx="440" cy="40" r="1.5"/><circle cx="480" cy="40" r="1.5"/><circle cx="520" cy="40" r="1.5"/><circle cx="560" cy="40" r="1.5"/><circle cx="600" cy="40" r="1.5"/><circle cx="640" cy="40" r="1.5"/><circle cx="680" cy="40" r="1.5"/><circle cx="720" cy="40" r="1.5"/><circle cx="760" cy="40" r="1.5"/><circle cx="800" cy="40" r="1.5"/><circle cx="840" cy="40" r="1.5"/><circle cx="880" cy="40" r="1.5"/><circle cx="920" cy="40" r="1.5"/>
    <circle cx="40" cy="280" r="1.5"/><circle cx="80" cy="280" r="1.5"/><circle cx="120" cy="280" r="1.5"/><circle cx="160" cy="280" r="1.5"/><circle cx="200" cy="280" r="1.5"/><circle cx="240" cy="280" r="1.5"/><circle cx="280" cy="280" r="1.5"/><circle cx="320" cy="280" r="1.5"/><circle cx="360" cy="280" r="1.5"/><circle cx="400" cy="280" r="1.5"/><circle cx="440" cy="280" r="1.5"/><circle cx="480" cy="280" r="1.5"/><circle cx="520" cy="280" r="1.5"/><circle cx="560" cy="280" r="1.5"/><circle cx="600" cy="280" r="1.5"/><circle cx="640" cy="280" r="1.5"/><circle cx="680" cy="280" r="1.5"/><circle cx="720" cy="280" r="1.5"/><circle cx="760" cy="280" r="1.5"/><circle cx="800" cy="280" r="1.5"/><circle cx="840" cy="280" r="1.5"/><circle cx="880" cy="280" r="1.5"/><circle cx="920" cy="280" r="1.5"/>
  </g>

  <!-- Left: Discipline diagram -->
  <g transform="translate(56, 72)" filter="url(#softshadow)">
    <!-- Pipeline box -->
    <rect x="0" y="0" width="240" height="176" rx="8" fill="#1e293b" stroke="#334155" stroke-width="1"/>
    <text x="120" y="24" text-anchor="middle" font-family="monospace" font-size="11" font-weight="700" fill="#f97316">UNIFIED PIPELINE</text>

    <!-- Steps -->
    <rect x="16" y="40" width="208" height="24" rx="4" fill="#0f172a" stroke="#475569" stroke-width="1"/>
    <text x="120" y="56" text-anchor="middle" font-family="monospace" font-size="10" fill="#86efac">1. Validate form</text>

    <rect x="16" y="72" width="208" height="24" rx="4" fill="#0f172a" stroke="#475569" stroke-width="1"/>
    <text x="120" y="88" text-anchor="middle" font-family="monospace" font-size="10" fill="#86efac">2. Emit ajax:before</text>

    <rect x="16" y="104" width="208" height="24" rx="4" fill="#0f172a" stroke="#475569" stroke-width="1"/>
    <text x="120" y="120" text-anchor="middle" font-family="monospace" font-size="10" fill="#86efac">3. Serialize + POST</text>

    <rect x="16" y="136" width="208" height="24" rx="4" fill="#0f172a" stroke="#475569" stroke-width="1"/>
    <text x="120" y="152" text-anchor="middle" font-family="monospace" font-size="10" fill="#86efac">4. Emit ajax:after</text>
  </g>

  <!-- Center-right: Title block -->
  <g transform="translate(370, 48)">
    <!-- Tag -->
    <rect x="0" y="0" width="158" height="26" rx="13" fill="#1e293b" stroke="#f97316" stroke-width="1.5"/>
    <text x="79" y="17" text-anchor="middle" font-family="monospace" font-size="11" font-weight="700" fill="#f97316">AGENT DISCIPLINE</text>

    <!-- Main title -->
    <text x="0" y="72" font-family="system-ui, -apple-system, sans-serif" font-size="44" font-weight="800" fill="#f8fafc" filter="url(#shadow)">TS-Util</text>

    <!-- Subtitle -->
    <text x="0" y="106" font-family="system-ui, -apple-system, sans-serif" font-size="15" fill="#94a3b8">One pipeline for humans and AI Agents.</text>
    <text x="0" y="128" font-family="system-ui, -apple-system, sans-serif" font-size="15" fill="#94a3b8">Same code. Same guardrails. Zero drift.</text>

    <!-- Quote -->
    <text x="0" y="164" font-family="system-ui, -apple-system, sans-serif" font-size="13" font-style="italic" fill="#64748b">"Ten engineers or ten Agents — output looks like one."</text>

    <!-- Stats badges -->
    <g transform="translate(0, 182)">
      <rect x="0" y="0" width="88" height="22" rx="4" fill="#1e293b" stroke="#334155" stroke-width="1"/>
      <text x="44" y="15" text-anchor="middle" font-family="monospace" font-size="10" fill="#86efac">TypeScript</text>

      <rect x="96" y="0" width="68" height="22" rx="4" fill="#1e293b" stroke="#334155" stroke-width="1"/>
      <text x="130" y="15" text-anchor="middle" font-family="monospace" font-size="10" fill="#fbbf24">0 deps</text>

      <rect x="172" y="0" width="100" height="22" rx="4" fill="#1e293b" stroke="#334155" stroke-width="1"/>
      <text x="222" y="15" text-anchor="middle" font-family="monospace" font-size="10" fill="#93c5fd">~1.6k lines</text>

      <rect x="280" y="0" width="118" height="22" rx="4" fill="#1e293b" stroke="#334155" stroke-width="1"/>
      <text x="339" y="15" text-anchor="middle" font-family="monospace" font-size="10" fill="#f9a8d4">npm ts-util-core</text>
    </g>
  </g>

  <!-- Bottom accent line -->
  <rect x="0" y="312" width="960" height="8" rx="0" fill="url(#accent)" opacity="0.7"/>
</svg>
